<svg width="54" height="36" viewBox="0 0 54 36" fill="none" xmlns="http://www.w3.org/2000/svg">
<g clip-path="url(#clip0)">
<path opacity="0.34" fill-rule="evenodd" clip-rule="evenodd" d="M43.796 16C45.7376 15.997 47.6365 16.57 49.2525 17.6465C50.8684 18.723 52.1287 20.2546 52.874 22.0475C53.6194 23.8404 53.8162 25.814 53.4396 27.7188C53.063 29.6235 52.1298 31.3738 50.7583 32.7482C49.3867 34.1225 47.6384 35.0592 45.7344 35.4397C43.8304 35.8202 41.8563 35.6274 40.0619 34.8858C38.2675 34.1441 36.7333 32.8869 35.6536 31.2732C34.5738 29.6595 33.997 27.7617 33.996 25.8201C33.9936 23.2184 35.0247 20.7223 36.8625 18.8807C38.7003 17.0392 41.1943 16.0029 43.796 16V16Z" fill="#A3BBC8"/>
</g>
<path fill-rule="evenodd" clip-rule="evenodd" d="M9.00598 4.75995H2.88C2.67048 4.75995 2.46956 4.84324 2.32141 4.9914C2.17326 5.13955 2.09003 5.34047 2.09003 5.54999C2.09003 5.75951 2.17326 5.96043 2.32141 6.10858C2.46956 6.25674 2.67048 6.34003 2.88 6.34003H9.00598C9.2155 6.34003 9.41648 6.25674 9.56464 6.10858C9.71279 5.96043 9.79602 5.75951 9.79602 5.54999C9.79602 5.34047 9.71279 5.13955 9.56464 4.9914C9.41648 4.84324 9.2155 4.75995 9.00598 4.75995V4.75995ZM9.53003 15.77H3.92999C3.7218 15.77 3.52216 15.8527 3.37494 15.9999C3.22772 16.1472 3.14502 16.3468 3.14502 16.555C3.14502 16.7632 3.22772 16.9628 3.37494 17.11C3.52216 17.2573 3.7218 17.34 3.92999 17.34H9.53003C9.73822 17.34 9.93787 17.2573 10.0851 17.11C10.2323 16.9628 10.315 16.7632 10.315 16.555C10.315 16.3468 10.2323 16.1472 10.0851 15.9999C9.93787 15.8527 9.73822 15.77 9.53003 15.77V15.77ZM7.43597 11.05H0.789978C0.580457 11.05 0.379538 11.1333 0.231384 11.2814C0.0832306 11.4296 0 11.6305 0 11.84C0 12.0496 0.0832306 12.2505 0.231384 12.3986C0.379538 12.5468 0.580457 12.6299 0.789978 12.6299H7.44C7.54375 12.6297 7.64644 12.6091 7.74219 12.5692C7.83793 12.5292 7.92487 12.4707 7.99805 12.3972C8.07122 12.3236 8.12918 12.2364 8.16864 12.1404C8.2081 12.0445 8.22829 11.9417 8.22803 11.838C8.22776 11.7342 8.20706 11.6316 8.16711 11.5358C8.12717 11.4401 8.06872 11.3531 7.99518 11.28C7.92163 11.2068 7.83441 11.1488 7.73846 11.1093C7.64252 11.0699 7.53972 11.0497 7.43597 11.05ZM7.43597 22.06H6.78998C6.58178 22.06 6.38214 22.1426 6.23492 22.2899C6.08771 22.4371 6.005 22.6368 6.005 22.845C6.005 23.0532 6.08771 23.2529 6.23492 23.4001C6.38214 23.5473 6.58178 23.6299 6.78998 23.6299H7.43402C7.53711 23.6301 7.63921 23.6099 7.7345 23.5706C7.82979 23.5313 7.91639 23.4736 7.98938 23.4008C8.06237 23.328 8.12028 23.2415 8.15985 23.1463C8.19942 23.0511 8.2199 22.9491 8.22003 22.846C8.22016 22.7429 8.19997 22.6408 8.16064 22.5455C8.12132 22.4502 8.06358 22.3636 7.99078 22.2906C7.91798 22.2176 7.83152 22.1598 7.73633 22.1202C7.64114 22.0806 7.53906 22.0601 7.43597 22.06V22.06ZM4.17297 22.06H0.789978C0.581783 22.06 0.38214 22.1426 0.234924 22.2899C0.0877083 22.4371 0.00500488 22.6368 0.00500488 22.845C0.00500488 23.0532 0.0877083 23.2529 0.234924 23.4001C0.38214 23.5473 0.581783 23.6299 0.789978 23.6299H4.177C4.3852 23.6294 4.58467 23.5462 4.73151 23.3986C4.87835 23.251 4.96055 23.0512 4.96002 22.843C4.95949 22.6348 4.87623 22.4354 4.72864 22.2885C4.58105 22.1417 4.38117 22.0595 4.17297 22.06V22.06ZM41.033 2.20001H34.376V0.779971C34.3749 0.572388 34.2916 0.373702 34.1442 0.227481C33.9969 0.081259 33.7976 -0.000529671 33.59 2.5816e-06H21.415C21.2068 2.5816e-06 21.0071 0.082706 20.8599 0.229922C20.7127 0.377138 20.63 0.576781 20.63 0.784976C20.63 0.993171 20.7127 1.19287 20.8599 1.34009C21.0071 1.48731 21.2068 1.57001 21.415 1.57001H32.805V18.79C32.8012 18.8955 32.8188 19.0007 32.8566 19.0993C32.8943 19.1979 32.9516 19.2879 33.0249 19.3638C33.0982 19.4398 33.1861 19.5002 33.2833 19.5414C33.3804 19.5827 33.4849 19.6041 33.5905 19.6041C33.6961 19.6041 33.8006 19.5827 33.8978 19.5414C33.9949 19.5002 34.0828 19.4398 34.1561 19.3638C34.2294 19.2879 34.2867 19.1979 34.3245 19.0993C34.3622 19.0007 34.3797 18.8955 34.376 18.79V3.76996H41.033C42.7604 3.77261 44.4161 4.46081 45.6365 5.68329C46.857 6.90577 47.5423 8.56259 47.542 10.29V23.58H45.542C45.3557 22.4113 44.7588 21.3472 43.8585 20.579C42.9582 19.8109 41.8135 19.3889 40.63 19.3889C39.4465 19.3889 38.3018 19.8109 37.4015 20.579C36.5012 21.3472 35.9043 22.4113 35.718 23.58H34.373V22.46C34.3768 22.3545 34.3593 22.2493 34.3215 22.1507C34.2837 22.0521 34.2264 21.9621 34.1531 21.8862C34.0798 21.8102 33.992 21.7498 33.8948 21.7086C33.7976 21.6673 33.6931 21.6459 33.5875 21.6459C33.4819 21.6459 33.3775 21.6673 33.2803 21.7086C33.1831 21.7498 33.0952 21.8102 33.0219 21.8862C32.9486 21.9621 32.8914 22.0521 32.8536 22.1507C32.8158 22.2493 32.7982 22.3545 32.802 22.46V23.58H24.466C24.2791 22.4119 23.6819 21.3487 22.7818 20.5811C21.8817 19.8136 20.7374 19.392 19.5545 19.392C18.3716 19.392 17.2273 19.8136 16.3272 20.5811C15.4271 21.3487 14.8299 22.4119 14.643 23.58H13.009V1.57001H18.27C18.4782 1.57001 18.6779 1.48731 18.8251 1.34009C18.9723 1.19287 19.055 0.993171 19.055 0.784976C19.055 0.576781 18.9723 0.377138 18.8251 0.229922C18.6779 0.082706 18.4782 2.5816e-06 18.27 2.5816e-06H12.224C12.0165 -0.000528933 11.8173 0.0812916 11.6701 0.227542C11.5229 0.373792 11.4398 0.57248 11.439 0.779971V24.3699C11.4393 24.5785 11.5219 24.7786 11.6689 24.9266C11.8159 25.0745 12.0154 25.1584 12.224 25.16H14.643C14.8299 26.3281 15.4271 27.3913 16.3272 28.1589C17.2273 28.9264 18.3716 29.348 19.5545 29.348C20.7374 29.348 21.8817 28.9264 22.7818 28.1589C23.6819 27.3913 24.2791 26.3281 24.466 25.16H35.718C35.9043 26.3287 36.5012 27.3928 37.4015 28.161C38.3018 28.9291 39.4465 29.3511 40.63 29.3511C41.8135 29.3511 42.9582 28.9291 43.8585 28.161C44.7588 27.3928 45.3557 26.3287 45.542 25.16H48.324C48.5325 25.1584 48.7321 25.0745 48.8791 24.9266C49.0261 24.7786 49.1088 24.5785 49.109 24.3699V10.29C49.108 8.14713 48.2572 6.09216 46.7433 4.57562C45.2294 3.05909 43.1759 2.20478 41.033 2.20001V2.20001ZM19.558 27.78C18.8831 27.7819 18.2229 27.5836 17.6608 27.2101C17.0987 26.8367 16.6601 26.3049 16.4005 25.6819C16.1408 25.059 16.0719 24.373 16.2023 23.7109C16.3328 23.0487 16.6567 22.4402 17.1332 21.9623C17.6097 21.4844 18.2173 21.1587 18.879 21.0263C19.5408 20.8939 20.227 20.9608 20.8506 21.2186C21.4743 21.4764 22.0075 21.9134 22.3826 22.4744C22.7578 23.0354 22.958 23.6951 22.958 24.3699C22.9577 25.2725 22.5997 26.1383 21.9625 26.7774C21.3252 27.4166 20.4606 27.7771 19.558 27.78V27.78ZM40.633 27.78C39.7304 27.7771 38.8658 27.4166 38.2285 26.7774C37.5912 26.1383 37.2333 25.2725 37.233 24.3699V24.3699C37.235 23.6979 37.4361 23.0416 37.8109 22.4838C38.1856 21.926 38.7174 21.4917 39.3388 21.2359C39.9602 20.9801 40.6436 20.9143 41.3024 21.0466C41.9613 21.1789 42.5662 21.5034 43.0406 21.9793C43.5151 22.4552 43.838 23.0611 43.9684 23.7204C44.0988 24.3797 44.0309 25.0627 43.7733 25.6834C43.5156 26.3041 43.0798 26.8345 42.5209 27.2077C41.962 27.5809 41.305 27.78 40.633 27.78V27.78ZM41.033 5.34003H36.733C36.5245 5.34161 36.3249 5.42547 36.1779 5.57343C36.0309 5.72138 35.9483 5.92137 35.948 6.12995V13.52C35.9483 13.7285 36.0309 13.9286 36.1779 14.0766C36.3249 14.2246 36.5245 14.3084 36.733 14.31H45.19C45.3987 14.3084 45.5983 14.2245 45.7455 14.0766C45.8927 13.9287 45.9755 13.7286 45.976 13.52V10.29C45.9763 8.97829 45.4558 7.72022 44.5289 6.79206C43.6021 5.86389 42.3447 5.34162 41.033 5.34003V5.34003ZM44.4 12.73H37.518V6.91999H41.033C41.9262 6.92105 42.7824 7.27653 43.4137 7.90839C44.045 8.54024 44.3998 9.3968 44.4 10.29V12.73ZM19.558 22.34C19.1562 22.3388 18.7632 22.4568 18.4286 22.6791C18.094 22.9015 17.8329 23.2181 17.6783 23.5889C17.5237 23.9598 17.4827 24.3682 17.5603 24.7624C17.638 25.1566 17.8308 25.5188 18.1144 25.8033C18.3981 26.0878 18.7598 26.2817 19.1537 26.3605C19.5477 26.4394 19.9562 26.3995 20.3275 26.246C20.6987 26.0926 21.0161 25.8324 21.2394 25.4985C21.4628 25.1645 21.582 24.7717 21.582 24.3699C21.5823 23.8325 21.3693 23.3169 20.9899 22.9363C20.6104 22.5558 20.0954 22.3414 19.558 22.34V22.34ZM19.558 24.83C19.4369 24.8287 19.3212 24.7797 19.236 24.6935C19.1508 24.6074 19.103 24.4911 19.103 24.3699C19.1085 24.2531 19.1588 24.1428 19.2434 24.0621C19.328 23.9813 19.4405 23.9363 19.5575 23.9363C19.6745 23.9363 19.7869 23.9813 19.8716 24.0621C19.9562 24.1428 20.0065 24.2531 20.012 24.3699C20.012 24.4909 19.9644 24.6071 19.8794 24.6932C19.7944 24.7793 19.6789 24.8284 19.558 24.83ZM40.633 22.34C40.2313 22.339 39.8383 22.4572 39.5038 22.6796C39.1694 22.9021 38.9084 23.2188 38.754 23.5897C38.5996 23.9605 38.5587 24.3689 38.6364 24.763C38.7142 25.1571 38.9071 25.5193 39.1908 25.8037C39.4745 26.0881 39.8362 26.2819 40.2301 26.3607C40.624 26.4394 41.0325 26.3994 41.4037 26.2459C41.7749 26.0924 42.0923 25.8323 42.3156 25.4984C42.5388 25.1644 42.658 24.7716 42.658 24.3699C42.658 23.8324 42.4448 23.3169 42.0652 22.9363C41.6856 22.5558 41.1705 22.3414 40.633 22.34V22.34ZM40.633 24.83C40.512 24.8284 40.3966 24.7793 40.3116 24.6932C40.2266 24.6071 40.179 24.4909 40.179 24.3699C40.179 24.2495 40.2268 24.1342 40.312 24.049C40.3971 23.9639 40.5126 23.916 40.633 23.916C40.7534 23.916 40.8689 23.9639 40.954 24.049C41.0392 24.1342 41.087 24.2495 41.087 24.3699C41.087 24.4909 41.0394 24.6071 40.9544 24.6932C40.8694 24.7793 40.754 24.8284 40.633 24.83V24.83ZM45.185 16.46C44.9775 16.4595 44.7783 16.5413 44.6311 16.6876C44.4839 16.8338 44.4008 17.0326 44.4 17.2401V19.23C44.3963 19.3356 44.4138 19.4407 44.4515 19.5392C44.4893 19.6378 44.5466 19.7278 44.6199 19.8038C44.6932 19.8797 44.7811 19.9402 44.8782 19.9815C44.9754 20.0228 45.0799 20.044 45.1855 20.044C45.2911 20.044 45.3956 20.0228 45.4927 19.9815C45.5899 19.9402 45.6778 19.8797 45.7511 19.8038C45.8244 19.7278 45.8817 19.6378 45.9194 19.5392C45.9572 19.4407 45.9748 19.3356 45.971 19.23V17.2401C45.97 17.0333 45.8873 16.8354 45.741 16.6893C45.5948 16.5432 45.3967 16.4608 45.19 16.46H45.185Z" fill="#A3BBC8"/>
<defs>
<clipPath id="clip0">
<rect width="19.593" height="19.63" fill="white" transform="translate(34 16)"/>
</clipPath>
</defs>
</svg>
