<svg width="54" height="53" viewBox="0 0 54 53" fill="none" xmlns="http://www.w3.org/2000/svg">
<g clip-path="url(#clip0)">
<path opacity="0.34" fill-rule="evenodd" clip-rule="evenodd" d="M43.796 33C45.7376 32.997 47.6365 33.57 49.2525 34.6465C50.8684 35.723 52.1287 37.2546 52.874 39.0475C53.6194 40.8404 53.8162 42.814 53.4396 44.7188C53.063 46.6235 52.1298 48.3738 50.7583 49.7482C49.3867 51.1225 47.6384 52.0592 45.7344 52.4397C43.8304 52.8202 41.8563 52.6274 40.0619 51.8858C38.2675 51.1441 36.7333 49.8869 35.6536 48.2732C34.5738 46.6595 33.997 44.7617 33.996 42.8201C33.9936 40.2184 35.0247 37.7223 36.8625 35.8807C38.7003 34.0392 41.1943 33.0029 43.796 33V33Z" fill="#A3BBC8"/>
</g>
<path fill-rule="evenodd" clip-rule="evenodd" d="M46.17 31.1568C46.0602 31.1555 45.9511 31.176 45.8492 31.2171C45.7474 31.2582 45.6548 31.3192 45.5767 31.3964C45.4985 31.4736 45.4365 31.5656 45.3942 31.6669C45.3518 31.7683 45.3299 31.877 45.33 31.9869V40.2569C45.3289 40.8294 45.101 41.3782 44.6962 41.783C44.2913 42.1879 43.7426 42.4158 43.17 42.4168H3.82996C3.25741 42.4158 2.70868 42.1879 2.30383 41.783C1.89898 41.3782 1.6711 40.8294 1.67004 40.2569V28.3369H28.96C29.1827 28.3369 29.3964 28.2484 29.554 28.0909C29.7115 27.9334 29.8 27.7197 29.8 27.4969C29.8 27.2741 29.7115 27.0604 29.554 26.9029C29.3964 26.7454 29.1827 26.6568 28.96 26.6568H1.67004V21.1868H11.54C11.6491 21.1871 11.7571 21.1658 11.8579 21.1242C11.9587 21.0826 12.0503 21.0215 12.1274 20.9444C12.2046 20.8673 12.2658 20.7756 12.3074 20.6747C12.349 20.5739 12.3703 20.4659 12.37 20.3569C12.3708 20.1356 12.284 19.923 12.1284 19.7656C11.9729 19.6081 11.7613 19.5188 11.54 19.5169H1.67004V16.6369C1.66898 16.0628 1.89588 15.5117 2.3009 15.1048C2.70593 14.6979 3.25584 14.4684 3.82996 14.4669H28.96C29.1814 14.4669 29.3938 14.3788 29.5504 14.2222C29.707 14.0656 29.795 13.8534 29.795 13.6319C29.795 13.4104 29.707 13.198 29.5504 13.0414C29.3938 12.8848 29.1814 12.7969 28.96 12.7969H3.82996C2.81318 12.7993 1.83889 13.2048 1.12085 13.9247C0.402814 14.6447 -0.000267517 15.6201 1.33206e-07 16.6369V40.2569C0.00185054 41.2721 0.405916 42.2452 1.12378 42.9631C1.84164 43.6809 2.81475 44.085 3.82996 44.0869H43.17C44.1853 44.085 45.1584 43.6809 45.8762 42.9631C46.5941 42.2452 46.9981 41.2721 47 40.2569V31.9869C47.0003 31.8778 46.979 31.7697 46.9374 31.6689C46.8958 31.5681 46.8346 31.4765 46.7574 31.3994C46.6803 31.3222 46.5887 31.2612 46.4879 31.2195C46.3871 31.1779 46.2791 31.1565 46.17 31.1568V31.1568ZM28.96 19.5169H14.74C14.5187 19.5188 14.3072 19.6081 14.1516 19.7656C13.9961 19.923 13.9092 20.1356 13.91 20.3569C13.9098 20.4659 13.931 20.5739 13.9727 20.6747C14.0143 20.7756 14.0753 20.8673 14.1525 20.9444C14.2296 21.0215 14.3212 21.0826 14.422 21.1242C14.5228 21.1658 14.6309 21.1871 14.74 21.1868H28.96C29.1813 21.1876 29.3939 21.1008 29.5513 20.9453C29.7087 20.7897 29.7982 20.5782 29.8 20.3569C29.7987 20.1345 29.7097 19.9216 29.5525 19.7643C29.3952 19.6071 29.1823 19.5182 28.96 19.5169V19.5169ZM19.72 31.0768H5.44995C5.2285 31.0768 5.01609 31.1649 4.8595 31.3215C4.7029 31.4781 4.61499 31.6903 4.61499 31.9118C4.61499 32.1333 4.7029 32.3457 4.8595 32.5023C5.01609 32.6589 5.2285 32.7469 5.44995 32.7469H19.72C19.8296 32.7469 19.9382 32.7253 20.0396 32.6833C20.1409 32.6413 20.2329 32.5798 20.3104 32.5023C20.388 32.4247 20.4495 32.3327 20.4915 32.2314C20.5334 32.1301 20.5549 32.0215 20.5549 31.9118C20.5549 31.8022 20.5334 31.6937 20.4915 31.5923C20.4495 31.491 20.388 31.399 20.3104 31.3215C20.2329 31.2439 20.1409 31.1824 20.0396 31.1404C19.9382 31.0985 19.8296 31.0768 19.72 31.0768V31.0768ZM13.64 35.0668H5.44995C5.2285 35.0668 5.01609 35.1549 4.8595 35.3115C4.7029 35.4681 4.61499 35.6803 4.61499 35.9018C4.61499 36.1233 4.7029 36.3357 4.8595 36.4922C5.01609 36.6488 5.2285 36.7369 5.44995 36.7369H13.64C13.8615 36.7369 14.0739 36.6488 14.2305 36.4922C14.3871 36.3357 14.475 36.1233 14.475 35.9018C14.475 35.6803 14.3871 35.4681 14.2305 35.3115C14.0739 35.1549 13.8615 35.0668 13.64 35.0668V35.0668ZM48.27 21.4568C48.3806 21.4579 48.4903 21.4369 48.5927 21.3951C48.695 21.3532 48.7881 21.2914 48.8663 21.2132C48.9445 21.135 49.0064 21.0419 49.0482 20.9395C49.0901 20.8371 49.1111 20.7275 49.11 20.6169V15.8469C49.1104 15.1534 48.8736 14.4806 48.4388 13.9404C48.0041 13.4001 47.3975 13.0248 46.72 12.8769V6.85687C46.7545 5.9692 46.6096 5.08366 46.2937 4.25336C45.9778 3.42306 45.4976 2.66504 44.8818 2.02478C44.266 1.38452 43.5273 0.875209 42.71 0.527283C41.8926 0.179356 41.0133 0 40.125 0C39.2367 0 38.3574 0.179356 37.54 0.527283C36.7227 0.875209 35.984 1.38452 35.3682 2.02478C34.7524 2.66504 34.2722 3.42306 33.9563 4.25336C33.6404 5.08366 33.4955 5.9692 33.53 6.85687V12.8769C32.8519 13.0254 32.2446 13.4005 31.8083 13.9404C31.3721 14.4803 31.1328 15.1527 31.13 15.8469V26.5969C31.1313 27.4027 31.452 28.1752 32.0219 28.7451C32.5917 29.3149 33.3642 29.6356 34.17 29.6369H46.0699C46.4692 29.637 46.8646 29.5584 47.2335 29.4057C47.6024 29.253 47.9375 29.0291 48.2198 28.7468C48.5022 28.4644 48.7262 28.1292 48.8789 27.7603C49.0316 27.3914 49.1101 26.9961 49.11 26.5969V23.4068C49.11 23.1853 49.0221 22.9731 48.8655 22.8165C48.7089 22.6599 48.4965 22.5718 48.275 22.5718C48.0536 22.5718 47.8412 22.6599 47.6846 22.8165C47.528 22.9731 47.4399 23.1853 47.4399 23.4068V26.5969C47.4376 26.9595 47.2925 27.3065 47.0361 27.5629C46.7797 27.8193 46.4326 27.9645 46.0699 27.9669H34.17C33.8074 27.9645 33.4603 27.8193 33.2039 27.5629C32.9474 27.3065 32.8024 26.9595 32.8 26.5969V15.8469C32.8024 15.4842 32.9474 15.1371 33.2039 14.8807C33.4603 14.6243 33.8074 14.4792 34.17 14.4769H46.0699C46.4326 14.4792 46.7797 14.6243 47.0361 14.8807C47.2925 15.1371 47.4376 15.4842 47.4399 15.8469V20.6169C47.4386 20.7267 47.4591 20.8357 47.5002 20.9376C47.5414 21.0394 47.6024 21.1321 47.6796 21.2103C47.7568 21.2884 47.8487 21.3504 47.9501 21.3928C48.0514 21.4351 48.1602 21.4569 48.27 21.4568V21.4568ZM45.04 12.8068H35.2V6.85687C35.2 5.55201 35.7183 4.30055 36.641 3.37787C37.5637 2.45519 38.8151 1.93683 40.12 1.93683C41.4249 1.93683 42.6763 2.45519 43.599 3.37787C44.5217 4.30055 45.04 5.55201 45.04 6.85687V12.8068ZM40.12 17.1269C39.3728 17.1273 38.6511 17.3983 38.0883 17.8897C37.5254 18.3811 37.1596 19.0597 37.0583 19.8C36.9571 20.5403 37.1273 21.2921 37.5376 21.9166C37.9478 22.541 38.5704 22.9958 39.29 23.1968V25.2369C39.2887 25.3467 39.3091 25.4557 39.3502 25.5576C39.3913 25.6594 39.4523 25.7521 39.5295 25.8303C39.6067 25.9084 39.6987 25.9704 39.8 26.0128C39.9014 26.0551 40.0102 26.0769 40.12 26.0768C40.2303 26.077 40.3397 26.0553 40.4417 26.0131C40.5436 25.971 40.6362 25.9091 40.7142 25.8311C40.7923 25.7531 40.8542 25.6604 40.8964 25.5584C40.9385 25.4564 40.9601 25.3472 40.96 25.2369V23.1968C41.6775 22.9928 42.2973 22.5364 42.705 21.9116C43.1126 21.2868 43.2807 20.5357 43.1785 19.7967C43.0762 19.0577 42.7105 18.3806 42.1484 17.89C41.5864 17.3994 40.866 17.1284 40.12 17.1269ZM40.12 21.6469C39.8382 21.6479 39.5624 21.5652 39.3275 21.4095C39.0926 21.2537 38.9092 21.0318 38.8004 20.7718C38.6916 20.5118 38.6624 20.2254 38.7164 19.9488C38.7704 19.6722 38.9053 19.4178 39.1039 19.2178C39.3025 19.0178 39.5558 18.8812 39.832 18.8253C40.1083 18.7693 40.3949 18.7964 40.6556 18.9034C40.9164 19.0103 41.1396 19.1922 41.297 19.426C41.4544 19.6598 41.539 19.935 41.54 20.2169C41.5406 20.5946 41.3914 20.957 41.1252 21.225C40.8591 21.493 40.4977 21.6448 40.12 21.6469V21.6469Z" fill="#A3BBC8"/>
<defs>
<clipPath id="clip0">
<rect width="19.593" height="19.63" fill="white" transform="translate(34 33)"/>
</clipPath>
</defs>
</svg>
