<svg width="51" height="53" viewBox="0 0 51 53" fill="none" xmlns="http://www.w3.org/2000/svg">
<g clip-path="url(#clip0)">
<path opacity="0.34" fill-rule="evenodd" clip-rule="evenodd" d="M40.7961 33C42.7377 32.997 44.6367 33.57 46.2526 34.6465C47.8685 35.723 49.1288 37.2546 49.8742 39.0475C50.6195 40.8404 50.8163 42.814 50.4397 44.7188C50.0631 46.6235 49.13 48.3738 47.7584 49.7482C46.3869 51.1225 44.6385 52.0592 42.7345 52.4397C40.8305 52.8202 38.8564 52.6274 37.062 51.8858C35.2676 51.1441 33.7334 49.8869 32.6537 48.2732C31.5739 46.6595 30.9971 44.7617 30.9961 42.8201C30.9937 40.2184 32.0248 37.7223 33.8626 35.8807C35.7004 34.0392 38.1944 33.0029 40.7961 33V33Z" fill="#A3BBC8"/>
</g>
<path fill-rule="evenodd" clip-rule="evenodd" d="M45.4195 11.592C45.3545 11.4875 45.2695 11.3968 45.1695 11.3251C45.0694 11.2534 44.9562 11.2021 44.8364 11.1742C44.7165 11.1462 44.5922 11.1422 44.4708 11.1622C44.3493 11.1823 44.233 11.226 44.1285 11.2911C44.024 11.3561 43.9333 11.441 43.8616 11.5411C43.7899 11.6411 43.7386 11.7543 43.7106 11.8742C43.6827 11.9941 43.6786 12.1183 43.6987 12.2397C43.7187 12.3612 43.7625 12.4775 43.8275 12.582C46.6227 17.0733 47.7603 22.4004 47.0434 27.6418C46.3266 32.8831 43.8004 37.709 39.9019 41.2848C36.0033 44.8607 30.9776 46.9616 25.694 47.224C20.4104 47.4865 15.2012 45.894 10.9675 42.7221C10.7681 42.5824 10.5221 42.5258 10.2817 42.5641C10.0413 42.6025 9.82518 42.7329 9.6791 42.9276C9.53302 43.1224 9.4684 43.3663 9.49889 43.6078C9.52939 43.8494 9.6526 44.0697 9.84251 44.2221C14.4261 47.6562 20.0657 49.3802 25.7859 49.0962C31.5061 48.8122 36.9472 46.5379 41.1681 42.6667C45.3889 38.7955 48.124 33.5708 48.9004 27.8964C49.6767 22.222 48.4454 16.4547 45.4195 11.592V11.592ZM22.3895 33.532H14.8395L19.5825 28.782C20.773 27.5995 21.717 26.1924 22.3597 24.6424C23.0024 23.0923 23.331 21.43 23.3265 19.752C23.3265 18.9845 23.1753 18.2247 22.8817 17.5157C22.588 16.8066 22.1575 16.1623 21.6148 15.6197C21.0722 15.077 20.4279 14.6466 19.7189 14.3529C19.0099 14.0593 18.25 13.908 17.4825 13.908C16.7151 13.908 15.9551 14.0593 15.2461 14.3529C14.5371 14.6466 13.8928 15.077 13.3502 15.6197C12.8075 16.1623 12.377 16.8066 12.0834 17.5157C11.7897 18.2247 11.6385 18.9845 11.6385 19.752C11.6465 19.9953 11.7487 20.2261 11.9237 20.3954C12.0986 20.5647 12.3325 20.6595 12.576 20.6595C12.8195 20.6595 13.0534 20.5647 13.2284 20.3954C13.4033 20.2261 13.5056 19.9953 13.5135 19.752C13.5135 19.2308 13.6162 18.7147 13.8156 18.2332C14.0151 17.7516 14.3074 17.314 14.676 16.9455C15.0446 16.5769 15.4821 16.2846 15.9636 16.0851C16.4452 15.8857 16.9613 15.783 17.4825 15.783C18.0037 15.783 18.5198 15.8857 19.0014 16.0851C19.4829 16.2846 19.9205 16.5769 20.289 16.9455C20.6576 17.314 20.9499 17.7516 21.1494 18.2332C21.3489 18.7147 21.4515 19.2308 21.4515 19.752C21.455 21.1845 21.1745 22.6035 20.626 23.9269C20.0776 25.2503 19.2723 26.4519 18.2565 27.4621L11.9125 33.802C11.7816 33.935 11.6928 34.1037 11.6572 34.2869C11.6216 34.4701 11.6409 34.6597 11.7125 34.8321C11.784 35.0023 11.9045 35.1474 12.0587 35.2489C12.2129 35.3504 12.3939 35.4037 12.5785 35.402H22.3915C22.6395 35.4017 22.8772 35.303 23.0524 35.1275C23.2275 34.9519 23.3258 34.714 23.3255 34.466C23.3252 34.218 23.2265 33.9804 23.0509 33.8052C22.8754 33.6301 22.6375 33.5318 22.3895 33.532V33.532ZM37.4285 27.0921H34.8285V25.5721C34.8206 25.3287 34.7183 25.0979 34.5434 24.9286C34.3684 24.7593 34.1345 24.6647 33.891 24.6647C33.6475 24.6647 33.4136 24.7593 33.2387 24.9286C33.0637 25.0979 32.9614 25.3287 32.9535 25.5721V27.0921H27.6675L32.9535 18.242V22.4521C32.9494 22.5778 32.9706 22.7029 33.0159 22.8202C33.0611 22.9376 33.1295 23.0447 33.217 23.135C33.3045 23.2254 33.4092 23.2973 33.525 23.3463C33.6408 23.3954 33.7653 23.4207 33.891 23.4207C34.0168 23.4207 34.1412 23.3954 34.257 23.3463C34.3728 23.2973 34.4776 23.2254 34.565 23.135C34.6525 23.0447 34.7209 22.9376 34.7661 22.8202C34.8114 22.7029 34.8326 22.5778 34.8285 22.4521V14.8321C34.8259 14.6711 34.7828 14.5134 34.7031 14.3736C34.6234 14.2337 34.5097 14.1163 34.3725 14.032C34.1581 13.9056 33.9024 13.8693 33.6613 13.9312C33.4202 13.9931 33.2135 14.1479 33.0865 14.362L25.2115 27.552C25.1266 27.6937 25.0809 27.8554 25.079 28.0205C25.077 28.1857 25.119 28.3483 25.2005 28.492C25.2828 28.6363 25.4014 28.7565 25.5445 28.8407C25.6877 28.9249 25.8504 28.9703 26.0165 28.9721H32.9545V34.4721C32.9625 34.7154 33.0647 34.9461 33.2396 35.1154C33.4146 35.2847 33.6485 35.3794 33.892 35.3794C34.1355 35.3794 34.3694 35.2847 34.5444 35.1154C34.7193 34.9461 34.8215 34.7154 34.8295 34.4721V28.9721H37.4295C37.6788 28.9719 37.9179 28.8727 38.094 28.6963C38.2702 28.5199 38.3691 28.2808 38.369 28.0315C38.3689 27.7822 38.2697 27.5432 38.0933 27.367C37.917 27.1908 37.6778 27.0919 37.4285 27.0921V27.0921ZM42.7585 4.46201C42.7589 4.33688 42.7343 4.21292 42.6861 4.09745C42.6379 3.98197 42.5671 3.87733 42.4778 3.78965C42.3885 3.70196 42.2826 3.63302 42.1663 3.58689C42.05 3.54076 41.9256 3.51836 41.8005 3.52103C41.6754 3.5237 41.5521 3.5514 41.4379 3.60245C41.3236 3.6535 41.2207 3.72686 41.1353 3.81827C41.0498 3.90968 40.9835 4.01732 40.9403 4.13474C40.8971 4.25216 40.8777 4.37705 40.8835 4.50205L40.9255 6.25205C36.1426 1.97462 29.8754 -0.260787 23.4651 0.0242659C17.0548 0.309319 11.0108 3.09217 6.62643 7.77726C2.24205 12.4623 -0.134317 18.6775 0.0058678 25.0926C0.146053 31.5076 2.79165 37.613 7.3765 42.1021C7.55091 42.2752 7.78676 42.3722 8.03251 42.372C8.15717 42.3731 8.28076 42.3488 8.39576 42.3007C8.51076 42.2526 8.61478 42.1816 8.7015 42.0921C8.87578 41.9138 8.97228 41.6737 8.96984 41.4244C8.96741 41.175 8.86623 40.9368 8.6885 40.762C5.47278 37.608 3.26909 33.5678 2.35836 29.1565C1.44763 24.7452 1.8711 20.1626 3.57481 15.993C5.27851 11.8233 8.18527 8.25539 11.9245 5.74405C15.6638 3.23272 20.0662 1.89169 24.5705 1.892C30.143 1.89981 35.5187 3.95304 39.6775 7.66202L37.8345 7.70206C37.7117 7.70351 37.5904 7.72912 37.4775 7.77744C37.3646 7.82576 37.2624 7.89583 37.1766 7.98368C37.0908 8.07152 37.0231 8.17541 36.9775 8.2894C36.9318 8.4034 36.9091 8.52526 36.9105 8.64805C36.912 8.77083 36.9376 8.89209 36.9859 9.00498C37.0342 9.11787 37.1043 9.22014 37.1921 9.30594C37.28 9.39174 37.3839 9.45939 37.4979 9.50504C37.6118 9.55069 37.7337 9.5735 37.8565 9.57206H37.8795L41.9395 9.48203C42.0628 9.47957 42.1843 9.45272 42.2972 9.40305C42.41 9.35338 42.5119 9.28185 42.597 9.1926C42.682 9.10336 42.7486 8.99819 42.7928 8.88309C42.837 8.768 42.858 8.64525 42.8545 8.52201L42.7585 4.46201Z" fill="#A3BBC8"/>
<defs>
<clipPath id="clip0">
<rect width="19.593" height="19.63" fill="white" transform="translate(31 33)"/>
</clipPath>
</defs>
</svg>
