<svg width="145" height="43" viewBox="0 0 145 43" fill="none" xmlns="http://www.w3.org/2000/svg">
<path d="M74.312 34.36C71.168 34.36 68.72 33.508 66.968 31.804C65.24 30.076 64.316 27.724 64.196 24.748C64.172 24.028 64.16 22.9 64.16 21.364C64.16 19.804 64.172 18.676 64.196 17.98C64.316 15.028 65.252 12.7 67.004 10.996C68.756 9.292 71.192 8.44 74.312 8.44C76.424 8.44 78.212 8.824 79.676 9.592C81.164 10.336 82.28 11.248 83.024 12.328C83.768 13.408 84.164 14.416 84.212 15.352V15.424C84.212 15.616 84.14 15.772 83.996 15.892C83.852 16.012 83.672 16.072 83.456 16.072H81.332C81.092 16.072 80.912 16.036 80.792 15.964C80.696 15.868 80.6 15.688 80.504 15.424C80.144 14.344 79.448 13.42 78.416 12.652C77.408 11.884 76.04 11.5 74.312 11.5C72.32 11.5 70.76 12.04 69.632 13.12C68.504 14.2 67.892 15.88 67.796 18.16C67.772 18.856 67.76 19.924 67.76 21.364C67.76 22.78 67.772 23.848 67.796 24.568C67.892 26.872 68.504 28.576 69.632 29.68C70.76 30.76 72.32 31.3 74.312 31.3C76.328 31.3 77.936 30.748 79.136 29.644C80.336 28.54 80.936 26.884 80.936 24.676V23.164H75.536C75.296 23.164 75.092 23.092 74.924 22.948C74.78 22.78 74.708 22.564 74.708 22.3V21.148C74.708 20.908 74.78 20.704 74.924 20.536C75.092 20.368 75.296 20.284 75.536 20.284H83.672C83.912 20.284 84.104 20.368 84.248 20.536C84.416 20.68 84.5 20.884 84.5 21.148V24.604C84.5 26.572 84.092 28.288 83.276 29.752C82.46 31.216 81.284 32.356 79.748 33.172C78.212 33.964 76.4 34.36 74.312 34.36ZM90.0319 34C89.7919 34 89.5879 33.928 89.4199 33.784C89.2759 33.616 89.2039 33.412 89.2039 33.172V9.268C89.2039 9.028 89.2759 8.836 89.4199 8.692C89.5879 8.524 89.7919 8.44 90.0319 8.44H91.7239C91.9639 8.44 92.1559 8.524 92.2999 8.692C92.4679 8.836 92.5519 9.028 92.5519 9.268V33.172C92.5519 33.412 92.4679 33.616 92.2999 33.784C92.1559 33.928 91.9639 34 91.7239 34H90.0319ZM105.41 34.36C102.938 34.36 100.958 33.604 99.4698 32.092C98.0058 30.556 97.2018 28.468 97.0578 25.828L97.0218 24.604L97.0578 23.416C97.2258 20.824 98.0418 18.76 99.5058 17.224C100.994 15.688 102.95 14.92 105.374 14.92C108.038 14.92 110.102 15.772 111.566 17.476C113.03 19.156 113.762 21.436 113.762 24.316V24.928C113.762 25.168 113.678 25.372 113.51 25.54C113.366 25.684 113.174 25.756 112.934 25.756H100.478V26.08C100.55 27.64 101.018 28.972 101.882 30.076C102.77 31.156 103.934 31.696 105.374 31.696C106.478 31.696 107.378 31.48 108.074 31.048C108.794 30.592 109.322 30.124 109.658 29.644C109.874 29.356 110.03 29.188 110.126 29.14C110.246 29.068 110.45 29.032 110.738 29.032H112.502C112.718 29.032 112.898 29.092 113.042 29.212C113.186 29.332 113.258 29.5 113.258 29.716C113.258 30.244 112.922 30.88 112.25 31.624C111.602 32.368 110.678 33.016 109.478 33.568C108.302 34.096 106.946 34.36 105.41 34.36ZM110.342 23.272V23.164C110.342 21.508 109.886 20.164 108.974 19.132C108.086 18.076 106.886 17.548 105.374 17.548C103.862 17.548 102.662 18.076 101.774 19.132C100.91 20.164 100.478 21.508 100.478 23.164V23.272H110.342ZM125.554 34.36C123.082 34.36 121.102 33.604 119.614 32.092C118.15 30.556 117.346 28.468 117.202 25.828L117.166 24.604L117.202 23.416C117.37 20.824 118.186 18.76 119.65 17.224C121.138 15.688 123.094 14.92 125.518 14.92C128.182 14.92 130.246 15.772 131.71 17.476C133.174 19.156 133.906 21.436 133.906 24.316V24.928C133.906 25.168 133.822 25.372 133.654 25.54C133.51 25.684 133.318 25.756 133.078 25.756H120.622V26.08C120.694 27.64 121.162 28.972 122.026 30.076C122.914 31.156 124.078 31.696 125.518 31.696C126.622 31.696 127.522 31.48 128.218 31.048C128.938 30.592 129.466 30.124 129.802 29.644C130.018 29.356 130.174 29.188 130.27 29.14C130.39 29.068 130.594 29.032 130.882 29.032H132.646C132.862 29.032 133.042 29.092 133.186 29.212C133.33 29.332 133.402 29.5 133.402 29.716C133.402 30.244 133.066 30.88 132.394 31.624C131.746 32.368 130.822 33.016 129.622 33.568C128.446 34.096 127.09 34.36 125.554 34.36ZM130.486 23.272V23.164C130.486 21.508 130.03 20.164 129.118 19.132C128.23 18.076 127.03 17.548 125.518 17.548C124.006 17.548 122.806 18.076 121.918 19.132C121.054 20.164 120.622 21.508 120.622 23.164V23.272H130.486ZM138.787 34C138.547 34 138.343 33.928 138.175 33.784C138.031 33.616 137.959 33.412 137.959 33.172V30.58C137.959 30.34 138.031 30.148 138.175 30.004C138.343 29.836 138.547 29.752 138.787 29.752H141.379C141.619 29.752 141.823 29.836 141.991 30.004C142.159 30.148 142.243 30.34 142.243 30.58V33.172C142.243 33.412 142.159 33.616 141.991 33.784C141.823 33.928 141.619 34 141.379 34H138.787Z" fill="#436372"/>
<path fill-rule="evenodd" clip-rule="evenodd" d="M0.157264 30.6666C0.31587 30.8611 0.53471 30.9972 0.779266 31.0536L48.8203 40.8536C48.978 40.8844 49.1405 40.8815 49.297 40.845C49.4535 40.8084 49.6005 40.7391 49.7283 40.6416C49.8444 40.5462 49.9339 40.4224 49.9882 40.2823C50.0425 40.1421 50.0597 39.9903 50.0383 39.8416L43.7873 2.7626C43.762 2.62954 43.709 2.5033 43.6316 2.39216C43.5543 2.28101 43.4543 2.18745 43.3383 2.1176C43.0342 1.98088 42.69 1.96269 42.3733 2.0666L7.17927 16.1106C6.95772 16.1893 6.77574 16.3515 6.67226 16.5626C6.50126 16.8876 0.178263 29.6386 0.0892632 29.8196C0.0205881 29.9531 -0.00942885 30.1031 0.00258566 30.2528C0.0146002 30.4024 0.0681693 30.5458 0.157264 30.6666ZM45.7433 37.1026L25.6933 25.9576L36.0323 23.7986L45.7433 37.1026ZM8.04327 18.2196L20.5693 25.2026L2.73627 28.9176L8.04327 18.2196ZM9.70527 17.0476L41.2403 4.4606L35.6823 22.0476L23.3113 24.6316L9.70527 17.0476ZM47.3633 36.0426L37.5843 22.6426L42.4843 7.1226L47.3633 36.0426ZM43.4773 37.9426L5.42627 30.1796L22.9493 26.5296L43.4773 37.9426Z" fill="#A3BBC8"/>
</svg>
