<svg width="12" height="13" viewBox="0 0 12 13" fill="none" xmlns="http://www.w3.org/2000/svg">
<path d="M2.4 8.12499H3.2C3.642 8.12499 4 7.76098 4 7.31247V6.49999C4 6.05108 3.642 5.68749 3.2 5.68749H2.4C1.958 5.68749 1.6 6.05108 1.6 6.49999V7.31247C1.6 7.76098 1.958 8.12499 2.4 8.12499ZM2.4 6.49999H3.2V7.31247H2.4V6.49999ZM8.8 11.375H9.6C10.042 11.375 10.4 11.0114 10.4 10.5625V9.74998C10.4 9.3011 10.042 8.93751 9.6 8.93751H8.8C8.35841 8.93751 8 9.3011 8 9.74998V10.5625C8 11.0114 8.358 11.375 8.8 11.375ZM8.8 9.74998H9.6V10.5625H8.8V9.74998ZM8.8 8.12499H9.6C10.042 8.12499 10.4 7.76098 10.4 7.31247V6.49999C10.4 6.05108 10.042 5.68749 9.6 5.68749H8.8C8.35841 5.68749 8 6.05108 8 6.49999V7.31247C8 7.76098 8.358 8.12499 8.8 8.12499ZM8.8 6.49999H9.6V7.31247H8.8V6.49999ZM10.4 0.812499H8.8V0.406249C8.8 0.181996 8.6208 0 8.40002 0C8.17924 0 8.00002 0.181996 8.00002 0.406249V0.812499H4.00002V0.406249C4 0.181996 3.8208 0 3.6 0C3.3792 0 3.2 0.181996 3.2 0.406249V0.812499H1.6C0.716412 0.812499 0 1.5401 0 2.4375V11.375C0 12.2724 0.716412 13 1.6 13H10.4C11.2836 13 12 12.2724 12 11.375V2.4375C12 1.54008 11.2836 0.812499 10.4 0.812499ZM11.2 11.375C11.2 11.8239 10.842 12.1875 10.4 12.1875H1.6C1.158 12.1875 0.8 11.8235 0.8 11.375V4.06249H11.2V11.375H11.2ZM11.2 3.24999H0.8V2.4375C0.8 1.98859 1.158 1.625 1.6 1.625H3.2V2.03125C3.2 2.2555 3.3792 2.4375 3.6 2.4375C3.8208 2.4375 4 2.2555 4 2.03125V1.625H8V2.03125C8 2.2555 8.17922 2.4375 8.4 2.4375C8.62078 2.4375 8.8 2.2555 8.8 2.03125V1.625H10.4C10.842 1.625 11.2 1.98859 11.2 2.4375V3.24999ZM5.6 11.375H6.4C6.842 11.375 7.2 11.0114 7.2 10.5625V9.74998C7.2 9.3011 6.842 8.93751 6.4 8.93751H5.6C5.15841 8.93751 4.8 9.3011 4.8 9.74998V10.5625C4.8 11.0114 5.158 11.375 5.6 11.375ZM5.6 9.74998H6.4V10.5625H5.6V9.74998ZM5.6 8.12499H6.4C6.842 8.12499 7.2 7.76098 7.2 7.31247V6.49999C7.2 6.05108 6.842 5.68749 6.4 5.68749H5.6C5.15841 5.68749 4.8 6.05108 4.8 6.49999V7.31247C4.8 7.76098 5.158 8.12499 5.6 8.12499ZM5.6 6.49999H6.4V7.31247H5.6V6.49999ZM2.4 11.375H3.2C3.642 11.375 4 11.0114 4 10.5625V9.74998C4 9.3011 3.642 8.93751 3.2 8.93751H2.4C1.958 8.93751 1.6 9.3011 1.6 9.74998V10.5625C1.6 11.0114 1.958 11.375 2.4 11.375ZM2.4 9.74998H3.2V10.5625H2.4V9.74998Z" fill="white"/>
</svg>
