<svg width="12" height="13" viewBox="0 0 12 13" fill="none" xmlns="http://www.w3.org/2000/svg">
<path d="M6 0C4.25534 0 2.83594 1.53768 2.83594 3.42773C2.83594 5.31779 4.25534 6.85547 6 6.85547C7.74466 6.85547 9.16406 5.31779 9.16406 3.42773C9.16406 1.53768 7.74466 0 6 0ZM6 6.09375C4.64304 6.09375 3.53906 4.89778 3.53906 3.42773C3.53906 1.95769 4.64304 0.761719 6 0.761719C7.35696 0.761719 8.46094 1.95769 8.46094 3.42773C8.46094 4.89778 7.35696 6.09375 6 6.09375Z" fill="white"/>
<path d="M9.9367 9.0948C9.07045 8.14194 7.92209 7.61719 6.70312 7.61719H5.29688C4.07794 7.61719 2.92955 8.14194 2.0633 9.0948C1.20129 10.043 0.726562 11.2946 0.726562 12.6191C0.726562 12.8295 0.883969 13 1.07812 13H10.9219C11.116 13 11.2734 12.8295 11.2734 12.6191C11.2734 11.2946 10.7987 10.043 9.9367 9.0948ZM1.44516 12.2383C1.62129 10.0779 3.28151 8.37891 5.29688 8.37891H6.70312C8.71849 8.37891 10.3787 10.0779 10.5548 12.2383H1.44516Z" fill="white"/>
</svg>
